# xmcd
#
# Track frame offsets:
#	150
#	23165
#	47427
#
# Disc length: 942 seconds
#
# Revision: 1
# Processed by: cddbd v1.5PL3 Copyright (c) Steve Scherf et al.
# Submitted via: CDex 1.50Beta5
#
DISCID=1803ac03
DTITLE=鈴木雅之 - Do The Boogie Back
DYEAR=1900
DGENRE=
TTITLE0=Do The Boogie Back (Edit)
TTITLE1=Pitch Pitch Chappin'
TTITLE2=Do The Boogie Back (Instrumenta)
EXTD=
EXTT0=
EXTT1=
EXTT2=
PLAYORDER=
